<svg xmlns="http://www.w3.org/2000/svg" viewBox="0 0 1252 1252"><defs><style>.cls-1{fill:#eeffdf;}.cls-2{fill:#8cc63f;}.cls-3{fill:#fff;}</style></defs><title>Iconite</title><g id="Layer_2" data-name="Layer 2"><circle class="cls-1" cx="625.84" cy="626.25" r="512.25"/><path class="cls-2" d="M669.41,548.77H334.66c-11.9,0-21.54,19-21.54,30.87h0a21.54,21.54,0,0,0,21.54,21.54H386a21.55,21.55,0,0,1,21.55,21.55V792.68A134.15,134.15,0,0,0,541.72,926.83H722.53A134.15,134.15,0,0,0,856.68,792.68V622.73a21.54,21.54,0,0,1,21.54-21.55H929.6a21.54,21.54,0,0,0,21.54-21.54h0c0-11.9-9.65-30.87-21.54-30.87Z"/><path class="cls-2" d="M788.8,454.32H664.62a17.49,17.49,0,0,0,.24-2.91v-8.29a18.23,18.23,0,0,0-18.23-18.23h-29a18.23,18.23,0,0,0-18.23,18.23v8.29a18.63,18.63,0,0,0,.23,2.91H475.46a67.88,67.88,0,0,0-67.88,67.88h449.1A67.88,67.88,0,0,0,788.8,454.32Z"/><path class="cls-2" d="M355.28,447a4.47,4.47,0,0,1-8.46-.9C344,432,335.45,419.72,329.43,415.07c-32.86-25.45-28.73-51.43-28.73-51.43-.08-9.84,5.27-20.56,10.66-28.86a4.47,4.47,0,0,1,8.23,2.75c-1.51,18.2,2.46,30.44,6.76,38.57,10.6,20.08,27.92,24.08,32.55,42.48C361.41,428.56,359.1,438.48,355.28,447Z"/><path class="cls-2" d="M400.64,436.59a4.47,4.47,0,0,1-8.46-.9c-2.79-14.14-11.38-26.4-17.39-31.06-32.86-25.45-28.73-51.43-28.73-51.43-.08-9.84,5.27-20.56,10.66-28.86a4.47,4.47,0,0,1,8.23,2.75c-1.52,18.2,2.46,30.44,6.75,38.57,10.61,20.08,27.93,24.08,32.56,42.48C406.77,418.12,404.45,428,400.64,436.59Z"/><path class="cls-2" d="M446,426.16a4.48,4.48,0,0,1-8.46-.91c-2.79-14.14-11.37-26.4-17.38-31.06-32.87-25.45-28.74-51.43-28.74-51.43-.07-9.84,5.27-20.56,10.67-28.86a4.48,4.48,0,0,1,8.23,2.76c-1.52,18.19,2.46,30.43,6.75,38.57,10.61,20.08,27.93,24.08,32.55,42.47C452.12,407.68,449.81,417.6,446,426.16Z"/><path class="cls-3" d="M481.58,671.14h8.62q11.78,0,16.51-1.29a23.75,23.75,0,0,0,9.06-4.25,22.77,22.77,0,0,0,7.58-10.11,38.52,38.52,0,0,0,0-28,27.3,27.3,0,0,0-7.58-10.23,26,26,0,0,0-10.29-5.05q-6.3-1.48-21.28-1.48H458.47v90.2h23.11Zm0-41h4.92q8.82,0,12.23,2.43t3.42,8q0,5.85-3.51,8.19-3.63,2.54-12.38,2.53h-4.68Z"/><path class="cls-3" d="M557.89,675.14q0-9,4.31-13.86t12.38-4.93c.78,0,2,.09,3.64.25a31.53,31.53,0,0,1,3.94,1l2.09-20a14.12,14.12,0,0,0-1.41-.16l-1.23-.09a21.2,21.2,0,0,0-2.65-.12,22.62,22.62,0,0,0-13.5,4q-5.41,3.95-8.68,12V638.67h-20.7V700.9h21.81Z"/><path class="cls-3" d="M623.72,703.3q10.9,0,18.42-3.94a21.27,21.27,0,0,0,10.48-11l-16.52-6.66a12,12,0,0,1-5.17,5.55,17.45,17.45,0,0,1-8.44,1.91q-6.78,0-10.35-3.94t-3.64-11.09h47.32v-1A47.45,47.45,0,0,0,653.6,658a32,32,0,0,0-6.78-11.62q-8.93-9.66-24.33-9.67-15.09,0-24.89,9.55-9.79,9.74-9.8,24.21,0,14.85,9.8,23.72Q607.45,703.3,623.72,703.3ZM613.25,653a12.34,12.34,0,0,1,8.5-2.89,11.84,11.84,0,0,1,8.44,3.26,13.17,13.17,0,0,1,4,8.45H609A15,15,0,0,1,613.25,653Z"/><polygon class="cls-3" points="670.83 700.9 692.52 700.9 692.52 654.2 701.7 654.2 701.7 638.67 692.52 638.67 692.52 620.13 670.71 620.13 670.71 638.67 661.41 638.67 661.41 654.2 670.71 654.2 670.83 700.9"/><polygon class="cls-3" points="717.89 700.9 739.58 700.9 739.58 654.2 748.76 654.2 748.76 638.67 739.58 638.67 739.58 620.13 717.77 620.13 717.77 638.67 708.47 638.67 708.47 654.2 717.77 654.2 717.89 700.9"/><path class="cls-3" d="M762.42,728.38h24.45L826,638.67H802.53l-8.82,22.49a31.34,31.34,0,0,0-1.78,5.17,40.15,40.15,0,0,0-1.11,4.68c-.33-1.52-.72-3-1.17-4.55a31.46,31.46,0,0,0-1.79-5.3l-8.69-22.49H754.84l25.07,52.74Z"/><path class="cls-3" d="M475.45,775a39.6,39.6,0,0,0,13.86,2.32q15.92,0,24.68-9.17t8.68-25.7v-2.33a9,9,0,0,1-.09-1.45H488.19v13.47H505.6a12.11,12.11,0,0,1-5.22,8.64,17.82,17.82,0,0,1-11.1,3.34q-7.89,0-12.32-5.23t-4.48-14.47q0-9.16,4.48-14.34t12.32-5.23a16.34,16.34,0,0,1,7.64,1.81,18.71,18.71,0,0,1,6.1,5.57L518.19,725a33.48,33.48,0,0,0-3.48-4.48,30.93,30.93,0,0,0-4.17-3.75A28.38,28.38,0,0,0,506,713.9a35.6,35.6,0,0,0-16.66-3.77,37.47,37.47,0,0,0-13.5,2.41,31.23,31.23,0,0,0-11,7.11,34,34,0,0,0-7.32,10.87A35,35,0,0,0,455,743.73a37,37,0,0,0,.61,6.6,36.1,36.1,0,0,0,1.93,6.6,32.48,32.48,0,0,0,7.06,10.88A30.73,30.73,0,0,0,475.45,775Z"/><path class="cls-3" d="M589.35,767.63a33.16,33.16,0,0,0,7.45-10.79,33.86,33.86,0,0,0-18.59-44.19A34.79,34.79,0,0,0,565,710.13a34.34,34.34,0,0,0-13.11,2.5,33.44,33.44,0,0,0-18.59,44.13,32.5,32.5,0,0,0,7.46,10.87,32.9,32.9,0,0,0,11.13,7.29A35.45,35.45,0,0,0,565,777.5a35.92,35.92,0,0,0,13.11-2.58A34.91,34.91,0,0,0,589.35,767.63Zm-24.35-5a15.65,15.65,0,0,1-12.16-5.31q-4.64-5.18-4.64-13.55a19.72,19.72,0,0,1,4.73-13.47A15.34,15.34,0,0,1,565,725a15.52,15.52,0,0,1,12,5.39,19.66,19.66,0,0,1,4.79,13.47,22.89,22.89,0,0,1-1.14,7.45,17.11,17.11,0,0,1-3.56,6A15.62,15.62,0,0,1,565,762.68Z"/><path class="cls-3" d="M655,774.92a34.84,34.84,0,0,0,11.23-7.29,33.16,33.16,0,0,0,7.45-10.79,33.88,33.88,0,0,0-18.59-44.19,34.83,34.83,0,0,0-13.19-2.52,34.34,34.34,0,0,0-13.11,2.5A33,33,0,0,0,617.67,720a32.52,32.52,0,0,0-7.45,10.88,33.15,33.15,0,0,0,0,25.88,32.48,32.48,0,0,0,7.45,10.87,32.94,32.94,0,0,0,11.14,7.29,35.41,35.41,0,0,0,13.11,2.58A35.87,35.87,0,0,0,655,774.92Zm-25.28-17.55q-4.65-5.18-4.65-13.55a19.68,19.68,0,0,1,4.74-13.47A15.33,15.33,0,0,1,641.89,725a15.52,15.52,0,0,1,12,5.39,19.65,19.65,0,0,1,4.78,13.47,22.89,22.89,0,0,1-1.14,7.45,17.08,17.08,0,0,1-3.55,6,16.42,16.42,0,0,1-24.26.09Z"/><path class="cls-3" d="M732.61,769.78a27.46,27.46,0,0,0,9.25-10.87,38,38,0,0,0,0-30.36,26.83,26.83,0,0,0-9.25-10.88A30.19,30.19,0,0,0,721.73,713q-6-1.4-21.19-1.41H687.16v64.22h16.32q12.72,0,18.51-1.44A30.12,30.12,0,0,0,732.61,769.78Zm-28.12-8.37V726h2.94q10.3,0,15,4.34t4.74,13.45q0,9.15-4.74,13.36t-15,4.3Z"/><path class="cls-3" d="M481.1,784.68a27.5,27.5,0,0,0-10.47,1.92,24.31,24.31,0,0,0-8.53,5.79,30.69,30.69,0,0,0-3.61,4.48,23.62,23.62,0,0,0-2.29,4.58,29.36,29.36,0,0,0-2,11,29.85,29.85,0,0,0,3.11,13.65,27.51,27.51,0,0,0,9,10,21.38,21.38,0,0,0,6.74,3.13,30.14,30.14,0,0,0,8,1,29.6,29.6,0,0,0,6.89-.83,33.47,33.47,0,0,0,6.84-2.5V821.15a21.58,21.58,0,0,1-5.87,4.86,14.07,14.07,0,0,1-6.37,1.55,13.27,13.27,0,0,1-10-4.16,15.08,15.08,0,0,1-3.91-10.61,21.27,21.27,0,0,1,.42-4.22,14.55,14.55,0,0,1,1.25-3.74,15.1,15.1,0,0,1,2.17-3.16,13.12,13.12,0,0,1,10.11-4.24,14.47,14.47,0,0,1,6.37,1.48,24.75,24.75,0,0,1,5.87,4.89V788a38.76,38.76,0,0,0-6.84-2.54A31.72,31.72,0,0,0,481.1,784.68Z"/><path class="cls-3" d="M548.49,792.9a27.9,27.9,0,0,0-9.17-6.07,28.92,28.92,0,0,0-10.9-2.08,28.54,28.54,0,0,0-10.82,2.06,27.53,27.53,0,0,0-9.19,6.09,26.86,26.86,0,0,0-6.16,9,27.39,27.39,0,0,0,0,21.37,28.16,28.16,0,0,0,15.35,15,29.24,29.24,0,0,0,10.82,2.14,29.73,29.73,0,0,0,10.83-2.14,28.59,28.59,0,0,0,9.26-6,27.41,27.41,0,0,0,6.16-8.91,27.39,27.39,0,0,0-6.18-30.43Zm-7.15,25.83a14.34,14.34,0,0,1-2.94,5,13.57,13.57,0,0,1-20,.07q-3.84-4.28-3.84-11.19a16.23,16.23,0,0,1,3.92-11.12,12.65,12.65,0,0,1,10-4.46,12.84,12.84,0,0,1,9.92,4.46,16.24,16.24,0,0,1,3.95,11.12A19.19,19.19,0,0,1,541.34,818.73Z"/><path class="cls-3" d="M611.32,792.9a27.9,27.9,0,0,0-9.17-6.07,28.92,28.92,0,0,0-10.9-2.08,28.54,28.54,0,0,0-10.82,2.06,27.53,27.53,0,0,0-9.19,6.09,26.86,26.86,0,0,0-6.16,9,27.39,27.39,0,0,0,0,21.37,28.16,28.16,0,0,0,15.35,15,29.24,29.24,0,0,0,10.82,2.14,29.73,29.73,0,0,0,10.83-2.14,28.59,28.59,0,0,0,9.26-6,27.41,27.41,0,0,0,6.16-8.91,27.39,27.39,0,0,0-6.18-30.43Zm-7.15,25.83a14.34,14.34,0,0,1-2.94,5,13.57,13.57,0,0,1-20,.07q-3.84-4.28-3.84-11.19a16.27,16.27,0,0,1,3.91-11.12,12.69,12.69,0,0,1,10-4.46,12.84,12.84,0,0,1,9.92,4.46,16.24,16.24,0,0,1,4,11.12A19.19,19.19,0,0,1,604.17,818.73Z"/><polygon class="cls-3" points="675.87 785.95 659.02 785.95 642.25 810.03 642.25 785.95 627.95 785.95 627.95 838.97 642.25 838.97 642.25 815.18 659.53 838.97 677.57 838.97 656.27 811.81 675.87 785.95"/><rect class="cls-3" x="681.43" y="785.95" width="14.6" height="53.03"/><path class="cls-3" d="M745,812.13c0,1.33.07,2.86.22,4.6q.07,1.68.61,5.83-1.41-3.07-2.89-6a38.29,38.29,0,0,0-1.92-3.37L721,786H707v53h14V812.79c0-.8-.05-2.34-.15-4.6-.21-2-.45-4-.69-5.87,1.07,2.37,2,4.32,2.9,5.87a35.73,35.73,0,0,0,1.92,3.4L745,839h13.87V786H745Z"/><path class="cls-3" d="M823.17,808.33h-28.4v11.12h14.38a10,10,0,0,1-4.31,7.14,14.73,14.73,0,0,1-9.16,2.75q-6.52,0-10.18-4.31t-3.7-12q0-7.56,3.7-11.84t10.18-4.31a13.49,13.49,0,0,1,6.3,1.49,15.37,15.37,0,0,1,5,4.6l12.54-6a27.61,27.61,0,0,0-2.88-3.69,25.29,25.29,0,0,0-3.44-3.1,23.11,23.11,0,0,0-3.78-2.33,29.43,29.43,0,0,0-13.76-3.12,31.19,31.19,0,0,0-11.15,2,25.93,25.93,0,0,0-9.12,5.87,28.31,28.31,0,0,0-6,9,29,29,0,0,0-2,10.91,29.65,29.65,0,0,0,.51,5.45,28.55,28.55,0,0,0,1.59,5.45,26.87,26.87,0,0,0,5.83,9,25.33,25.33,0,0,0,9,5.94,32.64,32.64,0,0,0,11.43,1.92q13.15,0,20.38-7.57t7.17-21.22v-1.92A7.55,7.55,0,0,1,823.17,808.33Z"/></g></svg>